<svg xmlns="http://www.w3.org/2000/svg" width="256" height="256" viewBox="0 0 100 100"><rect width="100" height="100" rx="20" fill="#f24130"></rect><path fill="#fff" d="M23.85 82.39L23.85 17.61L34.40 17.61L34.40 82.39L23.85 82.39ZM38.00 17.61L43.36 17.61Q51.54 17.61 57.73 20.21Q63.93 22.80 68.02 27.10Q72.10 31.41 74.13 36.90Q76.15 42.40 76.15 48.20L76.15 48.20Q76.15 56.20 74.43 61.87Q72.72 67.53 70.08 71.36Q67.45 75.18 64.15 77.38Q60.85 79.58 57.78 80.67Q54.70 81.77 52.15 82.08Q49.60 82.39 48.37 82.39L48.37 82.39L38.00 82.39L38.00 74.65L44.86 74.65Q55.58 74.65 60.33 67.80Q65.07 60.94 65.07 47.93L65.07 47.93Q65.07 43.89 64.11 39.94Q63.14 35.98 60.37 32.77Q57.60 29.57 52.86 27.59Q48.11 25.61 40.55 25.61L40.55 25.61L38.00 25.61L38.00 17.61Z"></path></svg>